<?xml version="1.0" encoding="UTF-8"?>
<svg xmlns="http://www.w3.org/2000/svg" viewBox="0 0 560 360" role="img"
     aria-labelledby="title-sample-pe desc-sample-pe">
  <title id="title-sample-pe">4×4 PE array — weight-stationary dataflow</title>
  <desc id="desc-sample-pe">A 4 by 4 grid of processing elements.  Weights
    stay resident inside each PE.  Activations stream left-to-right along
    each row while partial sums accumulate top-to-bottom along each
    column.  This file is the canonical template for new pccx diagrams —
    see `CLAUDE.md §5.2` for the palette and authoring rules.</desc>

  <defs>
    <marker id="arr" viewBox="0 0 10 10" refX="9" refY="5"
            markerWidth="7" markerHeight="7" orient="auto-start-reverse">
      <path d="M0,0 L10,5 L0,10 z" fill="#000000"/>
    </marker>

    <style><![CDATA[
      /* Shared pccx palette — NVIDIA CUDA / Intel-SDM minimalism.
         Self-contained white canvas + fixed pastel block fills + black
         borders and text.  See CLAUDE.md §5.2. */
      text         { fill: #000000; font: 400 12px ui-sans-serif, system-ui, sans-serif; }
      .t-pe        { font-weight: 600; font-size: 13px; text-anchor: middle; }
      .t-axis      { font-size: 10.5px; letter-spacing: 0.02em; }

      /* Compute cells — white.  Other canonical fills (see §5.2):
         panel-host #dae7f4, panel-dram #f5edd5, panel-pl #fafafa,
         block-ctrl #fce5c6, block-mem #e2efd8, block-bus #ebebeb. */
      .block-comp  { fill: #ffffff; stroke: #000000; stroke-width: 0.8; }
      .line        { stroke: #000000; stroke-width: 0.8; fill: none;
                     marker-end: url(#arr); }
    ]]></style>
  </defs>

  <!-- White canvas -->
  <rect x="0" y="0" width="560" height="360" fill="#ffffff"/>

  <!-- Axis labels (outside the grid) -->
  <text class="t-axis" x="460" y="40"  text-anchor="end">Activations →</text>
  <text class="t-axis" x="98"  y="328" text-anchor="end">Partial sums ↓</text>

  <!-- 4 × 4 PE grid -->
  <g id="grid">
    <!-- row 0 -->
    <rect class="block-comp" x="140" y="60"  width="70" height="48"/>
    <rect class="block-comp" x="225" y="60"  width="70" height="48"/>
    <rect class="block-comp" x="310" y="60"  width="70" height="48"/>
    <rect class="block-comp" x="395" y="60"  width="70" height="48"/>
    <!-- row 1 -->
    <rect class="block-comp" x="140" y="123" width="70" height="48"/>
    <rect class="block-comp" x="225" y="123" width="70" height="48"/>
    <rect class="block-comp" x="310" y="123" width="70" height="48"/>
    <rect class="block-comp" x="395" y="123" width="70" height="48"/>
    <!-- row 2 -->
    <rect class="block-comp" x="140" y="186" width="70" height="48"/>
    <rect class="block-comp" x="225" y="186" width="70" height="48"/>
    <rect class="block-comp" x="310" y="186" width="70" height="48"/>
    <rect class="block-comp" x="395" y="186" width="70" height="48"/>
    <!-- row 3 -->
    <rect class="block-comp" x="140" y="249" width="70" height="48"/>
    <rect class="block-comp" x="225" y="249" width="70" height="48"/>
    <rect class="block-comp" x="310" y="249" width="70" height="48"/>
    <rect class="block-comp" x="395" y="249" width="70" height="48"/>

    <!-- PE labels, centred inside each cell -->
    <text class="t-pe" x="175" y="89">PE</text>
    <text class="t-pe" x="260" y="89">PE</text>
    <text class="t-pe" x="345" y="89">PE</text>
    <text class="t-pe" x="430" y="89">PE</text>
    <text class="t-pe" x="175" y="152">PE</text>
    <text class="t-pe" x="260" y="152">PE</text>
    <text class="t-pe" x="345" y="152">PE</text>
    <text class="t-pe" x="430" y="152">PE</text>
    <text class="t-pe" x="175" y="215">PE</text>
    <text class="t-pe" x="260" y="215">PE</text>
    <text class="t-pe" x="345" y="215">PE</text>
    <text class="t-pe" x="430" y="215">PE</text>
    <text class="t-pe" x="175" y="278">PE</text>
    <text class="t-pe" x="260" y="278">PE</text>
    <text class="t-pe" x="345" y="278">PE</text>
    <text class="t-pe" x="430" y="278">PE</text>
  </g>

  <!-- Activation arrows (left → right, one per row) -->
  <line class="line" x1="105" y1="84"  x2="140" y2="84"/>
  <line class="line" x1="105" y1="147" x2="140" y2="147"/>
  <line class="line" x1="105" y1="210" x2="140" y2="210"/>
  <line class="line" x1="105" y1="273" x2="140" y2="273"/>

  <!-- Partial-sum arrows (top → bottom, one per column exit) -->
  <line class="line" x1="175" y1="297" x2="175" y2="332"/>
  <line class="line" x1="260" y1="297" x2="260" y2="332"/>
  <line class="line" x1="345" y1="297" x2="345" y2="332"/>
  <line class="line" x1="430" y1="297" x2="430" y2="332"/>
</svg>
